<mxfile host="app.diagrams.net" modified="2022-05-07T03:51:16.587Z" agent="5.0 (X11)" etag="nEjf0D1oz-xxCLheU_3p" version="17.4.6" type="github">
  <diagram id="OVNMd3PdcIqIwlq-xQlQ" name="Page-1">
    <mxGraphModel dx="1422" dy="759" grid="1" gridSize="10" guides="1" tooltips="1" connect="1" arrows="1" fold="1" page="1" pageScale="1" pageWidth="850" pageHeight="1100" math="0" shadow="0">
      <root>
        <mxCell id="0" />
        <mxCell id="1" parent="0" />
        <mxCell id="I7-SmjnGdA30WgPTXOM0-21" value="" style="rounded=0;whiteSpace=wrap;html=1;fontSize=15;" vertex="1" parent="1">
          <mxGeometry x="160" y="90" width="360" height="410" as="geometry" />
        </mxCell>
        <mxCell id="I7-SmjnGdA30WgPTXOM0-5" value="&lt;div style=&quot;font-size: 15px&quot;&gt;&lt;font style=&quot;font-size: 15px&quot;&gt;Operator&lt;/font&gt;&lt;/div&gt;" style="shape=umlActor;verticalLabelPosition=bottom;verticalAlign=top;html=1;outlineConnect=0;fontSize=21;" vertex="1" parent="1">
          <mxGeometry x="100" y="230" width="30" height="60" as="geometry" />
        </mxCell>
        <mxCell id="I7-SmjnGdA30WgPTXOM0-8" value="&lt;font style=&quot;font-size: 15px&quot;&gt;Manajer&lt;/font&gt;" style="shape=umlActor;verticalLabelPosition=bottom;verticalAlign=top;html=1;outlineConnect=0;fontSize=21;" vertex="1" parent="1">
          <mxGeometry x="550" y="250" width="30" height="60" as="geometry" />
        </mxCell>
        <mxCell id="I7-SmjnGdA30WgPTXOM0-9" value="simulasi rakit" style="ellipse;whiteSpace=wrap;html=1;fontSize=15;" vertex="1" parent="1">
          <mxGeometry x="280" y="120" width="120" height="80" as="geometry" />
        </mxCell>
        <mxCell id="I7-SmjnGdA30WgPTXOM0-11" value="aktivasi simulasi" style="ellipse;whiteSpace=wrap;html=1;fontSize=15;" vertex="1" parent="1">
          <mxGeometry x="280" y="240" width="120" height="80" as="geometry" />
        </mxCell>
        <mxCell id="I7-SmjnGdA30WgPTXOM0-15" value="melihat simulasi" style="ellipse;whiteSpace=wrap;html=1;fontSize=15;" vertex="1" parent="1">
          <mxGeometry x="280" y="360" width="120" height="80" as="geometry" />
        </mxCell>
        <mxCell id="I7-SmjnGdA30WgPTXOM0-19" value="" style="endArrow=classic;html=1;rounded=0;fontSize=15;" edge="1" parent="1" source="I7-SmjnGdA30WgPTXOM0-8" target="I7-SmjnGdA30WgPTXOM0-15">
          <mxGeometry width="50" height="50" relative="1" as="geometry">
            <mxPoint x="570" y="360" as="sourcePoint" />
            <mxPoint x="610" y="310" as="targetPoint" />
          </mxGeometry>
        </mxCell>
        <mxCell id="I7-SmjnGdA30WgPTXOM0-20" value="" style="endArrow=classic;html=1;rounded=0;fontSize=15;" edge="1" parent="1" source="I7-SmjnGdA30WgPTXOM0-5" target="I7-SmjnGdA30WgPTXOM0-9">
          <mxGeometry width="50" height="50" relative="1" as="geometry">
            <mxPoint x="495" y="290" as="sourcePoint" />
            <mxPoint x="410" y="290" as="targetPoint" />
          </mxGeometry>
        </mxCell>
        <mxCell id="I7-SmjnGdA30WgPTXOM0-22" value="" style="endArrow=classic;html=1;rounded=0;fontSize=15;" edge="1" parent="1" source="I7-SmjnGdA30WgPTXOM0-8" target="I7-SmjnGdA30WgPTXOM0-11">
          <mxGeometry width="50" height="50" relative="1" as="geometry">
            <mxPoint x="590" y="307.6470588235295" as="sourcePoint" />
            <mxPoint x="464.5807543188607" y="455.1991125660461" as="targetPoint" />
          </mxGeometry>
        </mxCell>
        <mxCell id="I7-SmjnGdA30WgPTXOM0-24" value="Sistem" style="text;html=1;strokeColor=default;fillColor=none;align=center;verticalAlign=middle;whiteSpace=wrap;rounded=0;fontSize=15;" vertex="1" parent="1">
          <mxGeometry x="160" y="90" width="70" height="30" as="geometry" />
        </mxCell>
      </root>
    </mxGraphModel>
  </diagram>
</mxfile>
